/* XPM */
static char *kali_db1[] = {
/* columns rows colors chars-per-pixel */
"48 48 128 2 ",
"   c #010101",
".  c #090202",
"X  c #03040B",
"o  c #0B010A",
"O  c #0B0B0C",
"+  c #16130F",
"@  c #040611",
"#  c #040A14",
"$  c #0B0D11",
"%  c #050D1B",
"&  c #090C1B",
"*  c #0F1216",
"=  c #171717",
"-  c #1A1A1A",
";  c #25211F",
":  c #051223",
">  c #0C1522",
",  c #0D1825",
"<  c #06122C",
"1  c #08172D",
"2  c #051B2E",
"3  c #0B1A2B",
"4  c #0C1C35",
"5  c #0E2337",
"6  c #0F233B",
"7  c #122133",
"8  c #12243A",
"9  c #232323",
"0  c #2C2C2C",
"q  c #343434",
"w  c #3A3A3A",
"e  c #062042",
"r  c #0C2542",
"t  c #0A2B45",
"y  c #0B2C4B",
"u  c #122842",
"i  c #102C4A",
"p  c #0B314B",
"a  c #193148",
"s  c #0C3253",
"d  c #09365D",
"f  c #1B3751",
"g  c #16365C",
"h  c #143B5D",
"j  c #1C3959",
"k  c #0C3966",
"l  c #0D3C6A",
"z  c #143962",
"x  c #1A3A63",
"c  c #143F6D",
"v  c #0B406D",
"b  c #164066",
"n  c #18426A",
"m  c #134371",
"M  c #134A75",
"N  c #134C7C",
"B  c #194F7E",
"V  c gray27",
"C  c #484442",
"Z  c #4B4B4B",
"A  c #4E5051",
"S  c #545454",
"D  c #57585A",
"F  c #5E5E5E",
"G  c #646464",
"H  c #6D6D6D",
"J  c #736D69",
"K  c #757575",
"L  c #787371",
"P  c #7D7D7D",
"I  c #144883",
"U  c #0F5385",
"Y  c #135089",
"T  c #085A97",
"R  c #09599D",
"E  c #125B97",
"W  c #195E9A",
"Q  c #0B68AF",
"!  c #1662A2",
"~  c #1566AB",
"^  c #1867A8",
"/  c #0E6EBF",
"(  c #1269B4",
")  c #0C70BC",
"_  c #7C7E80",
"`  c #167BC7",
"'  c #177CCC",
"]  c #137CD0",
"[  c #0E85DA",
"{  c #828282",
"}  c #8D8886",
"|  c #8B8B8B",
" . c #939393",
".. c #9B9B9B",
"X. c #A5A5A6",
"o. c gray68",
"O. c gray70",
"+. c #BDBDBD",
"@. c #B0D3DF",
"#. c #B8D4DE",
"$. c #B4D7E1",
"%. c #BFDCE4",
"&. c #B9E0EB",
"*. c #C1C1C1",
"=. c #C7C8C8",
"-. c #CBCBCB",
";. c #D3D3D3",
":. c #DAD9D9",
">. c #C6DEE6",
",. c #CAE1E7",
"<. c #C3E3EB",
"1. c #CDE4E9",
"2. c #D3E5EB",
"3. c #D4E9ED",
"4. c #DAE9EC",
"5. c #D6EBF0",
"6. c #DDEEF1",
"7. c #DFF1F3",
"8. c #E4E4E4",
"9. c #EBEBEB",
"0. c #E0EDF1",
"q. c #E7F0F2",
"w. c #ECF3F5",
"e. c #EDF9FB",
"r. c #F4F5F5",
"t. c #FBFAF5",
"y. c #F5FBFC",
"u. c #FFFFFF",
/* pixels */
"u.u.u.u.u.u.u.u.u.u.u.u.u.u.u.u.u.u.u.u.u.u.u.u.u.u.u.u.u.u.u.u.u.u.u.u.u.u.u.u.u.u.u.u.u.u.u.u.",
"u.u.u.u.u.u.u.u.u.u.u.u.u.u.u.u.u.u.u.u.u.u.u.u.u.u.u.u.u.u.u.u.u.u.u.u.u.u.u.u.u.u.u.u.u.u.u.u.",
"u.u.u.u.u.u.u.u.u.u.u.u.u.u.u.u.u.u.u.u.u.u.u.u.u.u.u.u.u.u.u.u.u.u.u.u.u.u.u.u.u.u.u.u.u.u.u.u.",
"u.u.u.u.u.u.u.u.u.u.u.u.u.u.u.u.u.u.u.u.u.u.u.u.u.u.u.u.u.u.u.u.u.u.u.u.u.u.u.u.u.u.u.u.u.u.u.u.",
"u.u.u.u.u.u.u.u.u.u.u.u.u.u.u.u.u.u.u.u.u.u.t.9.w.u.t.u.u.u.u.u.u.u.u.u.u.u.u.u.u.u.u.u.u.u.u.u.",
"u.u.u.u.u.u.u.u.u.u.u.u.u.u.u.u.u.u.u.u.u.8.X.{ { O.8.u.u.u.u.u.u.u.u.u.u.u.u.u.u.u.u.u.u.u.u.u.",
"u.u.u.u.u.u.u.u.u.u.u.u.u.u.u.u.u.u.t.;...P G q w J P X.8.u.u.u.u.u.u.u.u.u.u.u.u.u.u.u.u.u.u.u.",
"u.u.u.u.u.u.u.u.u.u.u.u.u.u.u.u.u.8..._ G 9       X q H { X.8.u.u.u.u.u.u.u.u.u.u.u.u.u.u.u.u.u.",
"u.u.u.u.u.u.u.u.u.u.u.u.u.u.t.8.X.P G 9               X q H { O.r.y.u.u.u.u.u.u.u.u.u.u.u.u.u.u.",
"u.u.u.u.u.u.u.u.u.u.u.u.u.r.O.{ H 9                       . q K { +.t.u.u.u.u.u.u.u.u.u.u.u.u.u.",
"u.u.u.u.u.u.u.u.u.u.u.u.-.| K q O                             O V P  .:.u.u.u.u.u.u.u.u.u.u.u.u.",
"u.u.u.u.u.u.u.u.u.u.9.X._ A O                                     = F { o.r.u.u.u.u.u.u.u.u.u.u.",
"u.u.u.u.u.u.u.u.t.:.| L ;           X X                               q K  .9.t.u.u.u.u.u.u.u.u.",
"u.u.u.u.u.u.u.t.+.{ D * & 7 8 u 5 % X X   . X                           - G { ;.u.u.u.u.u.u.u.u.",
"u.u.u.u.u.u.u.+._ V X   .     % 3 t s j z 6 #                             O S { =.u.u.u.u.u.u.u.",
"u.u.u.u.u.u.u.O.F         X @ @ : 2 1 1 e c ^ X                               K -.u.u.u.u.u.u.u.",
"u.u.u.u.u.u.u.:.K O X , i p f 5 y s p s l N / <         X                   = { 9.u.u.u.u.u.u.u.",
"u.u.u.u.u.u.u.t.| 9           . X t m M b t d T X O + $   X                 w ..u.u.u.u.u.u.u.u.",
"u.u.u.u.u.u.u.u.X.V       . : g g 1 o X X . X ( [ Q m r 4 $ X               F O.u.u.u.u.u.u.u.u.",
"u.u.u.u.u.u.u.u.=.H . . X 3 8 @           X k ~ y 4 t I R n $   X         O P 8.u.u.u.u.u.u.u.u.",
"u.u.u.u.u.u.u.u.9.P -     X               < ] % O       # Y ) % .         0 | r.u.u.u.u.u.u.u.u.",
"u.u.u.u.u.u.u.u.u...w                     k R       . X   % B Y @         S o.u.u.u.u.u.u.u.u.u.",
"u.u.u.u.u.u.u.u.u.+.F                     d R             o   6 % .       K -.u.u.u.u.u.u.u.u.u.",
"u.u.u.u.u.u.u.u.u.8.P X                   : ' e X   o   .         X     - { r.u.u.u.u.u.u.u.u.u.",
"u.u.u.u.u.u.u.u.u.t.| 0                   X r ` W s % X       X     .   w ..u.u.u.u.u.u.u.u.u.u.",
"u.u.u.u.u.u.u.u.u.u.o.Z                       @ t v U E ` R h & o X   X G *.u.u.u.u.u.u.u.u.u.u.",
"u.u.u.u.u.u.u.u.u.u.-.H                         X       1 ! I M p .   = { 8.u.u.u.u.u.u.u.u.u.u.",
"u.u.u.u.u.u.u.u.u.u.r.{ =                                 # W y s 6 X 0 } y.u.u.u.u.u.u.u.u.u.u.",
"u.u.u.u.u.u.u.u.u.u.t...w                               X . # Q % a # S o.u.u.u.u.u.u.u.u.u.u.u.",
"u.u.u.u.u.u.u.u.u.u.u.*.G                                     3 n # > K ;.u.u.u.u.u.u.u.u.u.u.u.",
"u.u.u.u.u.u.u.u.u.u.u.8.P X                                   X x @ 9 { t.u.u.u.u.u.u.u.u.u.u.u.",
"u.u.u.u.u.u.u.u.u.u.u.u.| 0                                     , & C ..u.u.u.u.u.u.u.u.u.u.u.u.",
"u.u.u.u.u.u.u.u.u.u.u.u.o.F X                                 . X * J =.u.u.u.u.u.u.u.u.u.u.u.u.",
"u.u.u.u.u.u.u.u.u.u.u.u.:.{ Z                                   X D } 9.u.u.u.u.u.u.u.u.u.u.u.u.",
"u.u.u.u.u.u.u.u.u.u.u.u.u.-.P w                               X S { :.u.u.u.u.u.u.u.u.u.u.u.u.u.",
"u.u.u.u.u.u.u.u.u.u.u.u.u.u.+.P w                           . S { :.u.u.u.u.u.u.u.u.u.u.u.u.u.u.",
"u.u.u.u.u.u.u.u.u.u.u.u.u.u.u.+.{ q                       X S { :.u.u.u.u.u.u.u.u.u.u.u.u.u.u.u.",
"u.u.u.u.u.u.u.u.u.u.u.u.u.u.u.u.+.{ w                   . S { :.u.u.u.u.u.u.u.u.u.u.u.u.u.u.u.u.",
"u.u.u.u.u.u.u.u.u.u.u.u.u.u.u.u.u.+.P S X         .   $ F { :.u.u.u.u.u.u.u.u.u.u.u.u.u.u.u.u.u.",
"u.u.u.u.u.u.u.u.u.u.u.u.u.u.u.u.u.u.-.{ F + X       - H { :.u.u.u.u.u.u.u.u.u.u.u.u.u.u.u.u.u.u.",
"u.u.u.u.u.u.u.u.u.u.u.u.u.u.u.u.u.u.u.:.| K 9   . w K | 9.u.u.u.u.u.u.u.u.u.u.u.u.u.u.u.u.u.u.u.",
"u.u.u.u.u.u.u.u.u.u.u.u.u.u.u.u.u.u.u.t.9...P S F P X.r.t.u.u.u.u.u.u.u.u.u.u.u.u.u.u.u.u.u.u.u.",
"u.u.u.u.u.u.u.u.u.u.t.u.u.u.u.u.u.u.u.u.t.r.+.{ { =.u.u.u.u.u.u.u.u.u.t.u.u.u.u.u.u.u.u.u.u.u.u.",
"u.u.u.u.u.u.u.u.y.y.u.t.t.e.u.u.u.u.u.u.u.u.u.8.r.u.y.u.u.y.u.u.u.u.u.u.u.y.t.u.u.u.u.u.u.u.u.u.",
"u.u.u.u.u.u.u.u.5.,.r.y.3.2.t.y.y.y.u.y.y.t.u.y.e.y.y.u.t.y.t.u.t.u.y.e.y.y.e.y.u.u.u.u.u.u.u.u.",
"u.u.u.u.u.u.u.w.@.&.,.e.%.1.<.$.,.4.q.3.q.4.,.7.#.,.4.2.e.2.6.1.q.1.>.>.1.4.<.4.u.u.u.u.u.u.u.u.",
"u.u.u.u.u.u.u.u.y.u.y.u.w.0.y.y.y.r.u.y.y.y.u.y.u.u.u.y.y.w.u.y.u.y.u.u.y.u.u.y.u.u.u.u.u.u.u.u.",
"u.u.u.u.u.u.u.u.u.u.u.u.u.y.u.u.u.u.u.u.u.u.u.u.u.u.u.u.u.u.u.u.u.u.u.u.u.u.u.u.u.u.u.u.u.u.u.u."
};
